<svg xmlns="http://www.w3.org/2000/svg" width="39.196" height="27.634" viewBox="828 215.62 39.196 27.634"><g data-name="CompositeLayer"><path d="m859.192 242.816 7.548-9.566a1.532 1.532 0 0 0 .299-.399c.4-.776.005-1.743-.82-2.056a1.613 1.613 0 0 0-.573-.102h-4.727v-13.195a1.522 1.522 0 0 0-1.507-1.497 1.629 1.629 0 0 0-.04-.001h-2.548a1.563 1.563 0 0 0-1.211.566 1.462 1.462 0 0 0-.336.932v13.195h-4.727c-1.24 0-1.922 1.305-1.339 2.254a1.559 1.559 0 0 0 .245.303l7.548 9.566a1.566 1.566 0 0 0 1.029.437c.411.017.828-.125 1.145-.424a1.556 1.556 0 0 0 .014-.013Z" fill="rgba(255, 255, 255, 1)" fill-rule="evenodd" data-name="Forme 3 copie"/><path d="m835.993 216.06-7.537 9.564a1.532 1.532 0 0 0-.299.4c-.483.938.194 2.157 1.39 2.157h4.721v13.196a1.521 1.521 0 0 0 1.524 1.498 1.623 1.623 0 0 0 .02 0h2.545a1.56 1.56 0 0 0 1.221-.58 1.462 1.462 0 0 0 .324-.918V228.18h4.72c1.376 0 2.066-1.613 1.092-2.557l-7.537-9.565a1.58 1.58 0 0 0-2.17-.014 1.557 1.557 0 0 0-.014.014Z" fill="rgba(255, 255, 255, 1)" fill-rule="evenodd" data-name="Forme 3"/></g></svg>